<?xml version="1.0" encoding="UTF-8"?>
<svg id="Layer_1" data-name="Layer 1" xmlns="http://www.w3.org/2000/svg" viewBox="0 0 365.93 299.01">
  <path d="M148.31,47.34l-44.06,31.19-2.55-5.24c15.59-9.35,26.33-23.48,26.37-36.47,0-.85-.04-1.68-.12-2.51l20.36,13.03ZM101.05,91.72l57.3,124.93c-5.68,2.27-11.47,4.34-17.36,6.15-18.41,5.67-35.94,8.41-51.85,8.52l79.05,6.78,3.03,6.6-123.9-10.56v-106.23l53.09-37.58.64,1.4ZM312.87,152.67l-95.76,67.95-11.77,8.35-20.96,14.87-3.38-6.98,26.46-18.92.96-.68,97.02-69.35,7.43,4.76ZM155.86,52.16l109.72,70.24c-14.94,34.64-51.53,68.93-96.59,89.68l-60.83-125.49-.63-1.3,47.51-33.64.82.52ZM186.31,30.2l48.99,4.19,84.2,7.2v.14l.19,101.36-9.78-6.01-.15-86.84-60.15-5.19c14.72,10.34,23.32,25.71,23.25,45.17-.03,7.19-1.23,14.54-3.49,21.95l-106.19-65.28-.75-.47,23-16.28.88.07ZM47.31,77.29c.25.21.49.41.77.6,4.97,3.71,11.83,5.59,19.62,5.59,5.41,0,11.27-.9,17.28-2.74,3.23-.99,6.38-2.2,9.39-3.59l2.9,6.33-49.96,35.38v-41.57ZM328.79,38.5c0-1.92-1.46-3.5-3.38-3.67l-.96-.1c-.3-.11-.62-.19-.94-.22l-87.6-7.49-50.23-4.38c-.26-.01-.51,0-.75.03l-.22-.03c-.88-.07-1.74.16-2.45.67l-26.68,18.89-37.68-23.17c-.15-.1-.31-.16-.48-.23-8.53-4.81-21.1-5.31-34.39-1.25-24.11,7.37-43.04,26.66-43.1,43.92h0v64.5h0v111.54h0v5.5c0,1.92,1.46,3.52,3.37,3.68l140.28,12.16c.11.01.22.01.31.01.78,0,1.53-.23,2.18-.7l15.84-11.46-4.37,22.58s-1.81,11.53,24.58,11.53,24.56-11.53,24.56-11.53l-9.31-48.21,90.1-65.16c.97-.7,1.53-1.82,1.53-3l-.21-114.44Z"/>
</svg>