<svg width="366" height="299" viewBox="0 0 366 299" fill="none" xmlns="http://www.w3.org/2000/svg">
<rect width="365.93" height="299.01" fill="white"/>
<path d="M148.31 47.34L104.25 78.53L101.7 73.29C117.29 63.94 128.03 49.81 128.07 36.82C128.07 35.97 128.03 35.14 127.95 34.31L148.31 47.34ZM101.05 91.72L158.35 216.65C152.67 218.92 146.88 220.99 140.99 222.8C122.58 228.47 105.05 231.21 89.14 231.32L168.19 238.1L171.22 244.7L47.32 234.14V127.91L100.41 90.33L101.05 91.73V91.72ZM312.87 152.67L217.11 220.62L205.34 228.97L184.38 243.84L181 236.86L207.46 217.94L208.42 217.26L305.44 147.91L312.87 152.67ZM155.86 52.16L265.58 122.4C250.64 157.04 214.05 191.33 168.99 212.08L108.16 86.59L107.53 85.29L155.04 51.65L155.86 52.17V52.16ZM186.31 30.2L235.3 34.39L319.5 41.59V41.73L319.69 143.09L309.91 137.08L309.76 50.24L249.61 45.05C264.33 55.39 272.93 70.76 272.86 90.22C272.83 97.41 271.63 104.76 269.37 112.17L163.18 46.89L162.43 46.42L185.43 30.14L186.31 30.21V30.2ZM47.31 77.29C47.56 77.5 47.8 77.7 48.08 77.89C53.05 81.6 59.91 83.48 67.7 83.48C73.11 83.48 78.97 82.58 84.98 80.74C88.21 79.75 91.36 78.54 94.37 77.15L97.27 83.48L47.31 118.86V77.29ZM328.79 38.5C328.79 36.58 327.33 35 325.41 34.83L324.45 34.73C324.15 34.62 323.83 34.54 323.51 34.51L235.91 27.02L185.68 22.64C185.42 22.63 185.17 22.64 184.93 22.67L184.71 22.64C183.83 22.57 182.97 22.8 182.26 23.31L155.58 42.2L117.9 19.03C117.75 18.93 117.59 18.87 117.42 18.8C108.89 13.99 96.32 13.49 83.03 17.55C58.92 24.92 39.99 44.21 39.93 61.47V125.97V237.51V243.01C39.93 244.93 41.39 246.53 43.3 246.69L183.58 258.85C183.69 258.86 183.8 258.86 183.89 258.86C184.67 258.86 185.42 258.63 186.07 258.16L201.91 246.7L197.54 269.28C197.54 269.28 195.73 280.81 222.12 280.81C248.51 280.81 246.68 269.28 246.68 269.28L237.37 221.07L327.47 155.91C328.44 155.21 329 154.09 329 152.91L328.79 38.47V38.5Z" fill="black"/>
</svg>
